<svg width="2047" height="2047" viewBox="0 0 2047 2047" fill="none" xmlns="http://www.w3.org/2000/svg">
<title id="title">ContextMatic</title>
  <desc id="desc">General-purpose AI models are trained on public code and documentation, much of it outdated. They have no awareness of an actual API version, latest SDKs or the recommended workflows. \n\nContextMatic give coding assistants deterministic, version-aware API context, generated directly from your API definition and SDKs. Instead of scraping public documentation or guessing from memory, the AI is grounded in the exact OpenAPI definition, current SDK versions, executable, idiomatic code samples, and recommended integration workflows.</desc>
 <rect width="2047" height="2047" rx="60" fill="#0C7FF2"/>
<path d="M1337.41 1612.71C1304.77 1612.75 1272.13 1612.75 1239.49 1612.71H577.923C509.452 1610.77 442.856 1589.91 385.507 1552.45C332.101 1516.64 288.909 1467.58 260.163 1410.06C241.511 1372.13 229.806 1331.16 225.604 1289.11C222.972 1270.82 224.464 1252.31 224.088 1233.92C227.441 1169.69 247.939 1107.53 283.449 1053.9C318.959 1000.27 368.185 957.138 426.008 928.981C428.998 927.187 434.374 925.892 433.362 921.311C427.285 874.485 428.778 826.987 437.782 780.635C451.697 711.532 482.439 646.928 527.286 592.548C570.349 540.417 624.998 499.072 686.875 471.815C748.751 444.557 816.141 432.139 883.668 435.553C955.76 439.162 1025.85 460.521 1087.7 497.734C1147.71 534.006 1198.01 584.311 1234.28 644.324C1241.77 656.198 1247.46 669.07 1254.66 681.081C1288.56 658.282 1327.56 644.211 1368.21 640.119C1435.24 634.583 1505.38 656.179 1554.57 702.376C1598.31 743.577 1627.9 800.593 1631.35 860.721C1634.36 902.402 1626.25 944.135 1607.84 981.651C1605.73 985.677 1603.72 989.74 1601.95 993.925C1620.88 1000.77 1639.36 1008.81 1657.29 1017.99C1719.96 1050.93 1769.1 1106.47 1797.93 1170.36C1827.37 1235.14 1830.96 1309.73 1813.31 1378.14C1799.56 1429.96 1772.59 1477.33 1735.04 1515.62C1677.04 1575.59 1597.9 1610.54 1514.5 1613C1455.44 1612.63 1396.44 1612.67 1337.41 1612.71ZM1493.31 1329.03C1497.33 1333.99 1497.95 1340.97 1501.18 1346.48C1508.78 1361.82 1520.46 1374.77 1534.94 1383.91C1549.42 1393.05 1566.14 1398.02 1583.25 1398.29C1600.37 1398.55 1617.23 1394.09 1631.99 1385.41C1646.74 1376.72 1658.82 1364.13 1666.89 1349.04C1673.57 1336.55 1677.25 1322.68 1677.64 1308.53C1678.03 1294.37 1675.12 1280.32 1669.14 1267.49C1662.62 1253.7 1652.84 1241.72 1640.64 1232.57C1628.44 1223.43 1614.19 1217.4 1599.13 1215.01C1580.11 1211.6 1560.95 1215.93 1543.23 1222.7C1540.54 1199.69 1541.7 1176.3 1540.17 1153.13C1534.11 1158.53 1529.09 1164.95 1523.43 1170.72C1520.23 1165.76 1517.52 1160.5 1515.32 1155.02C1486.13 1092.56 1458.01 1029.62 1430.96 966.194C1428.51 962.249 1432.93 959.603 1435.72 957.719C1455.12 945.229 1469.02 925.804 1474.59 903.411C1479.73 881.146 1476.77 857.775 1466.24 837.496C1459.4 825.061 1449.82 814.35 1438.22 806.178C1426.62 798.007 1413.31 792.589 1399.3 790.339C1375.29 786.536 1350.72 792.037 1330.62 805.72C1318.28 815.04 1307.97 826.782 1300.32 840.227C1283.98 823.075 1269.1 804.642 1253.17 787.151C1250.66 794.802 1252.09 803.051 1250.24 810.838C1247.9 810.43 1245.59 809.837 1243.35 809.063C1117.68 761.071 991.489 714.433 864.762 669.15C861.467 668.312 858.171 665.854 859.842 662.088C862.772 644.382 860.484 626.207 853.257 609.78C846.029 593.354 834.176 579.387 819.144 569.586C808.62 562.745 796.827 558.091 784.468 555.901C772.109 553.712 759.436 554.03 747.202 556.839C734.969 559.648 723.425 564.889 713.259 572.251C703.092 579.612 694.51 588.944 688.023 599.69C679.975 613.36 675.557 628.861 675.188 644.72C674.819 660.58 678.511 676.27 685.914 690.299C693.842 705.422 707.029 716.759 720.676 726.698C702.17 742.179 681.833 755.545 663.741 771.464C672.37 772.251 680.941 773.581 689.403 775.447C617.688 911.579 545.345 1047.39 472.375 1182.89C471.118 1186.89 467.055 1186.06 463.967 1185C445.002 1179.84 424.894 1180.79 406.503 1187.73C388.112 1194.66 372.375 1207.21 361.531 1223.6C352.825 1236.78 347.688 1251.99 346.623 1267.75C345.558 1283.51 348.6 1299.27 355.453 1313.5C364.277 1331.74 378.804 1346.62 396.835 1355.87C414.867 1365.13 435.421 1368.25 455.388 1364.78C475.356 1361.31 493.649 1351.43 507.5 1336.63C521.35 1321.84 530.005 1302.93 532.154 1282.78C550.882 1296.54 567.933 1312.56 586.119 1327.03C585.601 1318.39 584.024 1309.82 584.147 1301.14C591.127 1301.9 598.062 1303.03 604.922 1304.52C892.342 1357.65 1186.2 1366.46 1476.29 1330.64C1481.07 1330.2 1485.88 1328.91 1490.72 1328.91C1491.58 1328.91 1492.45 1328.94 1493.31 1329.03ZM402.855 1337.03C389.867 1329.82 379.422 1318.77 372.947 1305.39C366.472 1292.02 364.282 1276.97 366.676 1262.31C369.409 1246.71 377.145 1232.44 388.714 1221.63C400.283 1210.83 415.056 1204.09 430.797 1202.43C446.539 1200.77 462.392 1204.28 475.958 1212.44C489.525 1220.59 500.067 1232.95 505.988 1247.63C510.816 1259.73 512.26 1272.93 510.165 1285.79C508.07 1298.66 502.516 1310.71 494.097 1320.66C487.14 1328.74 478.505 1335.21 468.794 1339.61C459.083 1344.01 448.529 1346.24 437.867 1346.15C425.598 1346.24 413.522 1343.09 402.86 1337.02L402.855 1337.03ZM424.789 1229.35C414.462 1232.38 405.495 1238.87 399.404 1247.75C393.314 1256.62 390.474 1267.32 391.364 1278.05C392.381 1289.5 397.529 1300.2 405.847 1308.14C414.166 1316.08 425.088 1320.72 436.577 1321.2C448.066 1321.69 459.339 1317.97 468.294 1310.76C477.249 1303.55 483.276 1293.32 485.251 1281.99C486.719 1273.09 485.585 1263.96 481.983 1255.69C478.382 1247.42 472.467 1240.37 464.951 1235.38C457.094 1230.12 447.844 1227.33 438.39 1227.38C433.786 1227.38 429.205 1228.04 424.789 1229.34V1229.35ZM982.075 1329.82C850.142 1323.31 718.838 1307.43 589.156 1282.31C592.541 1274.46 598.458 1268.06 602.681 1260.65C579.571 1263.78 556.964 1270.25 533.948 1273.88C530.958 1270.69 532.573 1264.75 531.34 1260.55C531.043 1252.92 526.698 1245.81 526.538 1238.42C590.982 1201.96 657.159 1168.55 724.174 1136.99C877.531 1064.97 1036.3 1005.08 1199.01 957.865C1215.72 953.322 1232.2 947.766 1249.17 944.24C1249.67 951.773 1248.53 959.306 1248.99 966.839C1265.94 951.66 1282.38 935.897 1299.29 920.699C1309.13 936.476 1320.77 951.999 1337.5 961.189C1359.22 973.061 1384.61 976.333 1408.64 970.356C1411.72 968.864 1413 972.866 1414.12 974.857C1431.87 1015.74 1449.33 1056.72 1467.84 1097.32C1480.11 1125.29 1493.9 1152.69 1505.81 1180.84C1497.05 1182.54 1488.16 1183.47 1479.36 1184.95C1483.59 1189.04 1488.22 1192.7 1493.19 1195.86C1507.31 1206.42 1522.09 1216.11 1535.68 1227.26C1515.62 1240.97 1498.96 1261.01 1494.18 1285.22C1491.79 1293.11 1493.13 1301.73 1490.82 1309.5C1420.26 1319.58 1349.02 1325.26 1277.86 1329.28C1225.21 1331.99 1172.48 1333.51 1119.77 1333.51C1073.84 1333.54 1027.94 1332.38 982.079 1329.81L982.075 1329.82ZM514.18 1219.02C506.643 1209.6 497.817 1201.28 487.962 1194.32C543.227 1090.82 599.004 987.579 653.675 883.759C671.443 850.509 688.616 816.935 706.746 783.907C713.219 789.246 719.255 795.085 725.61 800.584C725.77 776.977 725.37 753.347 726.048 729.74C741.904 735.714 758.696 740.479 775.851 738.544C792.178 737.111 807.854 731.467 821.348 722.165C834.842 712.862 845.694 700.218 852.842 685.469C859.138 687.031 865.316 689.035 871.329 691.467C961.93 723.741 1052.13 757.071 1142.16 790.81C1175.84 803.818 1209.85 815.97 1243.29 829.577C1237.68 836.639 1230.98 842.76 1225.31 849.78C1249.32 849.224 1273.27 846.87 1297.3 846.63C1293.78 857.179 1291.76 868.17 1291.3 879.281C1291.36 890.111 1292.79 900.89 1295.57 911.358C1273.04 908.51 1250.73 904.187 1228.25 901.179C1233.87 908.809 1239.54 916.419 1245.28 924.009C1241.98 926.128 1238.31 927.583 1234.45 928.293C986.415 996.732 747.354 1094.31 522.263 1218.98C520.672 1220.01 518.879 1220.68 517.005 1220.96C516.392 1220.97 515.793 1220.78 515.288 1220.43C514.783 1220.09 514.397 1219.59 514.18 1219.02Z" fill="white" fill-opacity="0.2"/>
<path d="M275.291 996.142H225.575C224.912 991.038 223.553 986.431 221.498 982.321C219.443 978.211 216.726 974.698 213.345 971.781C209.964 968.865 205.954 966.644 201.314 965.119C196.74 963.528 191.669 962.733 186.1 962.733C176.224 962.733 167.706 965.152 160.547 969.991C153.454 974.83 147.985 981.824 144.14 990.972C140.362 1000.12 138.473 1011.19 138.473 1024.18C138.473 1037.7 140.395 1049.04 144.24 1058.19C148.151 1067.27 153.619 1074.13 160.646 1078.77C167.739 1083.34 176.124 1085.63 185.802 1085.63C191.238 1085.63 196.176 1084.93 200.618 1083.54C205.125 1082.15 209.069 1080.13 212.45 1077.48C215.897 1074.76 218.714 1071.48 220.902 1067.63C223.155 1063.72 224.713 1059.31 225.575 1054.41L275.291 1054.71C274.429 1063.72 271.811 1072.61 267.436 1081.36C263.127 1090.11 257.194 1098.09 249.637 1105.32C242.081 1112.48 232.867 1118.18 221.995 1122.42C211.19 1126.66 198.795 1128.78 184.808 1128.78C166.38 1128.78 149.874 1124.74 135.291 1116.65C120.774 1108.5 109.306 1096.63 100.887 1081.06C92.4689 1065.48 88.2596 1046.52 88.2596 1024.18C88.2596 1001.78 92.5352 982.785 101.086 967.207C109.637 951.63 121.205 939.797 135.788 931.71C150.371 923.623 166.711 919.58 184.808 919.58C197.137 919.58 208.539 921.303 219.012 924.75C229.486 928.131 238.7 933.102 246.654 939.665C254.609 946.161 261.072 954.149 266.044 963.628C271.015 973.107 274.098 983.945 275.291 996.142ZM374.748 1128.88C358.706 1128.88 344.918 1125.6 333.384 1119.04C321.916 1112.41 313.067 1103.2 306.836 1091.4C300.671 1079.53 297.588 1065.78 297.588 1050.13C297.588 1034.42 300.671 1020.67 306.836 1008.87C313.067 997.004 321.916 987.79 333.384 981.227C344.918 974.598 358.706 971.284 374.748 971.284C390.789 971.284 404.544 974.598 416.012 981.227C427.546 987.79 436.395 997.004 442.56 1008.87C448.791 1020.67 451.907 1034.42 451.907 1050.13C451.907 1065.78 448.791 1079.53 442.56 1091.4C436.395 1103.2 427.546 1112.41 416.012 1119.04C404.544 1125.6 390.789 1128.88 374.748 1128.88ZM375.046 1092.19C380.879 1092.19 385.818 1090.4 389.861 1086.82C393.905 1083.24 396.987 1078.27 399.108 1071.91C401.296 1065.55 402.39 1058.19 402.39 1049.84C402.39 1041.35 401.296 1033.93 399.108 1027.56C396.987 1021.2 393.905 1016.23 389.861 1012.65C385.818 1009.07 380.879 1007.28 375.046 1007.28C369.014 1007.28 363.909 1009.07 359.733 1012.65C355.623 1016.23 352.475 1021.2 350.287 1027.56C348.166 1033.93 347.105 1041.35 347.105 1049.84C347.105 1058.19 348.166 1065.55 350.287 1071.91C352.475 1078.27 355.623 1083.24 359.733 1086.82C363.909 1090.4 369.014 1092.19 375.046 1092.19ZM525.436 1038.9V1126H476.814V973.273H523.05V1001.31H524.74C528.121 991.966 533.888 984.641 542.042 979.338C550.195 973.969 559.906 971.284 571.175 971.284C581.914 971.284 591.227 973.704 599.115 978.543C607.07 983.315 613.235 990.01 617.61 998.628C622.051 1007.18 624.239 1017.19 624.172 1028.66V1126H575.55V1038.2C575.616 1029.72 573.462 1023.09 569.087 1018.32C564.778 1013.54 558.779 1011.16 551.09 1011.16C545.986 1011.16 541.478 1012.28 537.567 1014.54C533.722 1016.72 530.739 1019.87 528.618 1023.98C526.563 1028.09 525.503 1033.06 525.436 1038.9ZM740.483 973.273V1009.07H644.133V973.273H740.483ZM664.318 936.682H712.94V1077.97C712.94 1080.96 713.404 1083.38 714.332 1085.23C715.326 1087.02 716.752 1088.32 718.608 1089.11C720.464 1089.84 722.684 1090.2 725.27 1090.2C727.126 1090.2 729.081 1090.04 731.136 1089.71C733.257 1089.31 734.848 1088.98 735.909 1088.71L743.267 1123.81C740.947 1124.48 737.665 1125.3 733.423 1126.3C729.247 1127.29 724.242 1127.92 718.409 1128.19C707.007 1128.72 697.23 1127.39 689.076 1124.21C680.989 1120.96 674.791 1115.92 670.483 1109.1C666.24 1102.27 664.185 1093.68 664.318 1083.34V936.682ZM835.042 1128.88C819.067 1128.88 805.279 1125.73 793.679 1119.44C782.145 1113.07 773.262 1104.03 767.031 1092.29C760.866 1080.49 757.784 1066.47 757.784 1050.23C757.784 1034.46 760.899 1020.67 767.13 1008.87C773.361 997.004 782.145 987.79 793.48 981.227C804.815 974.598 818.172 971.284 833.551 971.284C844.422 971.284 854.365 972.974 863.38 976.355C872.395 979.736 880.184 984.741 886.747 991.369C893.309 997.998 898.413 1006.18 902.059 1015.93C905.705 1025.61 907.528 1036.71 907.528 1049.24V1061.37H774.787V1033.13H862.287C862.22 1027.96 860.994 1023.35 858.608 1019.31C856.221 1015.27 852.94 1012.12 848.764 1009.86C844.654 1007.54 839.914 1006.38 834.545 1006.38C829.109 1006.38 824.237 1007.61 819.929 1010.06C815.62 1012.45 812.206 1015.73 809.687 1019.91C807.168 1024.02 805.842 1028.69 805.71 1033.93V1062.66C805.71 1068.89 806.936 1074.36 809.389 1079.07C811.842 1083.71 815.322 1087.32 819.829 1089.91C824.337 1092.49 829.706 1093.78 835.937 1093.78C840.246 1093.78 844.157 1093.19 847.67 1091.99C851.183 1090.8 854.199 1089.04 856.718 1086.72C859.237 1084.4 861.127 1081.55 862.386 1078.17L907.031 1079.47C905.175 1089.48 901.098 1098.19 894.801 1105.62C888.57 1112.97 880.383 1118.71 870.241 1122.82C860.099 1126.86 848.366 1128.88 835.042 1128.88ZM971.537 973.273L996.694 1023.59L1022.74 973.273H1071.76L1029.11 1049.64L1073.36 1126H1024.73L996.694 1075.29L969.35 1126H920.032L964.378 1049.64L922.219 973.273H971.537ZM1180.17 973.273V1009.07H1083.82V973.273H1180.17ZM1104.01 936.682H1152.63V1077.97C1152.63 1080.96 1153.09 1083.38 1154.02 1085.23C1155.01 1087.02 1156.44 1088.32 1158.3 1089.11C1160.15 1089.84 1162.37 1090.2 1164.96 1090.2C1166.81 1090.2 1168.77 1090.04 1170.82 1089.71C1172.94 1089.31 1174.54 1088.98 1175.6 1088.71L1182.95 1123.81C1180.63 1124.48 1177.35 1125.3 1173.11 1126.3C1168.93 1127.29 1163.93 1127.92 1158.1 1128.19C1146.69 1128.72 1136.92 1127.39 1128.76 1124.21C1120.68 1120.96 1114.48 1115.92 1110.17 1109.1C1105.93 1102.27 1103.87 1093.68 1104.01 1083.34V936.682ZM1208.26 922.364H1269.21L1320.92 1048.44H1323.3L1375.01 922.364H1435.96V1126H1388.03V1000.91H1386.34L1337.42 1124.71H1306.8L1257.88 1000.22H1256.19V1126H1208.26V922.364ZM1509.71 1128.59C1499.97 1128.59 1491.32 1126.96 1483.76 1123.71C1476.27 1120.4 1470.34 1115.43 1465.96 1108.8C1461.65 1102.1 1459.5 1093.72 1459.5 1083.64C1459.5 1075.16 1460.99 1068 1463.97 1062.16C1466.96 1056.33 1471.07 1051.59 1476.3 1047.95C1481.54 1044.3 1487.57 1041.55 1494.4 1039.69C1501.23 1037.77 1508.52 1036.48 1516.27 1035.82C1524.96 1035.02 1531.95 1034.19 1537.25 1033.33C1542.56 1032.4 1546.4 1031.11 1548.79 1029.45C1551.24 1027.73 1552.47 1025.31 1552.47 1022.19V1021.7C1552.47 1016.59 1550.71 1012.65 1547.2 1009.86C1543.68 1007.08 1538.94 1005.69 1532.98 1005.69C1526.55 1005.69 1521.38 1007.08 1517.47 1009.86C1513.56 1012.65 1511.07 1016.49 1510.01 1021.4L1465.17 1019.81C1466.49 1010.53 1469.91 1002.24 1475.41 994.949C1480.98 987.591 1488.6 981.824 1498.28 977.648C1508.02 973.405 1519.72 971.284 1533.38 971.284C1543.12 971.284 1552.1 972.444 1560.32 974.764C1568.54 977.018 1575.7 980.332 1581.8 984.707C1587.9 989.016 1592.61 994.319 1595.92 1000.62C1599.3 1006.91 1600.99 1014.11 1600.99 1022.19V1126H1555.25V1104.72H1554.06C1551.34 1109.89 1547.86 1114.27 1543.62 1117.85C1539.44 1121.43 1534.5 1124.11 1528.8 1125.9C1523.17 1127.69 1516.8 1128.59 1509.71 1128.59ZM1524.73 1096.77C1529.96 1096.77 1534.67 1095.71 1538.85 1093.59C1543.09 1091.46 1546.47 1088.55 1548.99 1084.84C1551.51 1081.06 1552.77 1076.68 1552.77 1071.71V1057.19C1551.37 1057.92 1549.68 1058.59 1547.69 1059.18C1545.77 1059.78 1543.65 1060.34 1541.33 1060.87C1539.01 1061.4 1536.62 1061.87 1534.17 1062.26C1531.72 1062.66 1529.37 1063.03 1527.11 1063.36C1522.54 1064.09 1518.63 1065.21 1515.38 1066.74C1512.2 1068.26 1509.75 1070.25 1508.02 1072.7C1506.36 1075.09 1505.54 1077.94 1505.54 1081.26C1505.54 1086.29 1507.33 1090.14 1510.91 1092.79C1514.55 1095.44 1519.16 1096.77 1524.73 1096.77ZM1716.93 973.273V1009.07H1620.58V973.273H1716.93ZM1640.76 936.682H1689.39V1077.97C1689.39 1080.96 1689.85 1083.38 1690.78 1085.23C1691.77 1087.02 1693.2 1088.32 1695.05 1089.11C1696.91 1089.84 1699.13 1090.2 1701.71 1090.2C1703.57 1090.2 1705.53 1090.04 1707.58 1089.71C1709.7 1089.31 1711.29 1088.98 1712.35 1088.71L1719.71 1123.81C1717.39 1124.48 1714.11 1125.3 1709.87 1126.3C1705.69 1127.29 1700.69 1127.92 1694.85 1128.19C1683.45 1128.72 1673.68 1127.39 1665.52 1124.21C1657.43 1120.96 1651.24 1115.92 1646.93 1109.1C1642.69 1102.27 1640.63 1093.68 1640.76 1083.34V936.682ZM1741.74 1126V973.273H1790.36V1126H1741.74ZM1766.1 955.474C1759.27 955.474 1753.4 953.221 1748.5 948.713C1743.59 944.139 1741.14 938.637 1741.14 932.207C1741.14 925.844 1743.59 920.408 1748.5 915.901C1753.4 911.327 1759.27 909.04 1766.1 909.04C1772.99 909.04 1778.86 911.327 1783.7 915.901C1788.6 920.408 1791.05 925.844 1791.05 932.207C1791.05 938.637 1788.6 944.139 1783.7 948.713C1778.86 953.221 1772.99 955.474 1766.1 955.474ZM1892.6 1128.88C1876.49 1128.88 1862.67 1125.57 1851.14 1118.94C1839.67 1112.31 1830.85 1103.1 1824.69 1091.3C1818.52 1079.43 1815.44 1065.71 1815.44 1050.13C1815.44 1034.49 1818.52 1020.77 1824.69 1008.97C1830.92 997.103 1839.77 987.856 1851.24 981.227C1862.77 974.598 1876.52 971.284 1892.5 971.284C1906.62 971.284 1918.92 973.836 1929.39 978.94C1939.93 984.045 1948.15 991.27 1954.05 1000.62C1960.01 1009.9 1963.16 1020.8 1963.49 1033.33H1918.05C1917.13 1025.51 1914.47 1019.38 1910.1 1014.93C1905.79 1010.49 1900.16 1008.27 1893.2 1008.27C1887.56 1008.27 1882.62 1009.86 1878.38 1013.05C1874.14 1016.16 1870.82 1020.8 1868.44 1026.97C1866.12 1033.06 1864.96 1040.62 1864.96 1049.64C1864.96 1058.65 1866.12 1066.27 1868.44 1072.51C1870.82 1078.67 1874.14 1083.34 1878.38 1086.53C1882.62 1089.64 1887.56 1091.2 1893.2 1091.2C1897.7 1091.2 1901.68 1090.24 1905.13 1088.32C1908.64 1086.39 1911.52 1083.58 1913.78 1079.86C1916.03 1076.09 1917.46 1071.51 1918.05 1066.14H1963.49C1963.03 1078.74 1959.88 1089.74 1954.05 1099.15C1948.28 1108.57 1940.16 1115.89 1929.69 1121.13C1919.28 1126.3 1906.92 1128.88 1892.6 1128.88Z" fill="white"/>
</svg>
